<?xml version="1.0" encoding="utf-8"?>
<!-- Generator: Adobe Illustrator 24.0.2, SVG Export Plug-In . SVG Version: 6.00 Build 0)  -->
<svg version="1.1" id="Layer_1" xmlns="http://www.w3.org/2000/svg" xmlns:xlink="http://www.w3.org/1999/xlink" x="0px" y="0px"
	 viewBox="0 0 500.3 500.3" style="enable-background:new 0 0 500.3 500.3;" xml:space="preserve">
<style type="text/css">
	.st0{fill:#6C757D;}
</style>
<g>
	<g>
		<path class="st0" d="M390.9,140.8C390.9,62.9,328,0,250.1,0S109.3,62.9,109.3,140.8c0,67.2,48,164.3,117.3,183.5l1.1,11.7
			c1.1,6.4,2.1,19.2-1.1,23.5c-1.1,1.1-2.1,2.1-4.3,4.3c-2.1,1.1-3.2,3.2-5.3,5.3c-18.1,19.2-20.3,46.9-21.3,65.1l-3.2,43.7
			c-1.1,11.7,7.5,21.3,19.2,22.4c1.1,0,1.1,0,2.1,0c10.7,0,19.2-8.5,20.3-18.1l3.2-43.7c1.1-17.1,3.2-32,10.7-40.5
			c1.1-1.1,2.1-2.1,3.2-3.2c3.2-3.2,6.4-6.4,9.6-10.7c12.8-18.1,10.7-40.5,8.5-53.3l-1.1-5.3C340.8,310.4,390.9,210.1,390.9,140.8z
			 M250.1,284.8c-49.1,0-99.2-84.3-99.2-145.1c0-54.4,44.8-99.2,99.2-99.2s99.2,44.8,99.2,99.2C349.3,200.5,299.2,284.8,250.1,284.8
			z"/>
	</g>
</g>
<g>
	<g>
		<path class="st0" d="M284.3,86.4c-6.4-8.5-20.3-10.7-28.8-3.2c-8.5,6.4-10.7,20.3-3.2,28.8c1.1,0,24.5,32,12.8,62.9
			c-4.3,10.7,1.1,22.4,11.7,26.7c2.1,1.1,5.3,1.1,7.5,1.1c8.5,0,16-5.3,18.1-11.7C323.7,136.5,286.4,88.5,284.3,86.4z"/>
	</g>
</g>
</svg>
