<?xml version="1.0" encoding="utf-8"?>
<!-- Generator: Adobe Illustrator 24.0.2, SVG Export Plug-In . SVG Version: 6.00 Build 0)  -->
<svg version="1.1" id="Capa_1" xmlns="http://www.w3.org/2000/svg" xmlns:xlink="http://www.w3.org/1999/xlink" x="0px" y="0px"
	 viewBox="0 0 512 512" style="enable-background:new 0 0 512 512;" xml:space="preserve">
<style type="text/css">
	.st0{fill:#FFFFFF;}
</style>
<g>
	<g>
		<g>
			<path class="st0" d="M453.9,96.3c-10.5,10.5-27.6,10.5-38.2,0c-10.5-10.5-10.5-27.6,0-38.2c10.5-10.5,27.6-10.5,38.2,0
				C464.4,68.7,464.4,85.8,453.9,96.3z M413.7,232.4c-14.2,35.9-44.3,68.9-71.8,96.4c-31.5,31.5-42.4,72.4-45.5,104.3L78.8,215.5
				c31.9-3.1,72.8-14,104.3-45.5c27.5-27.5,60.5-57.6,96.4-71.8c40.7-16.1,75.2-8,108.7,25.5S429.8,191.7,413.7,232.4L413.7,232.4z
				 M124.8,387.2c-21.4-21.4-24.5-54.4-9-79l88.1,88.1C179.1,411.7,146.2,408.7,124.8,387.2z M481.6,30.4
				c-25.9-25.9-67.8-25.9-93.6,0c-9.2,9.2-15.1,20.5-17.8,32.3c-10-4.7-20.3-8-30.8-9.9c-23.8-4.3-48.8-1.3-74.3,8.7
				c-42.6,16.8-79.4,50.2-109.8,80.6c-45,45-120.8,33.9-121.5,33.7c-8.4-1.4-16.8,2.9-20.7,10.5s-2.4,16.9,3.6,22.9l70.5,70.5
				c-30.6,40.5-27.5,98.5,9.5,135.4c36.9,36.9,94.9,40.1,135.4,9.5l70.5,70.5c6,6,15.3,7.5,22.9,3.6s11.9-12.2,10.5-20.7
				c0-0.2-2.9-19.4-0.1-44.1c3.7-32.6,15.1-58.7,33.8-77.4c30.4-30.4,63.8-67.2,80.6-109.8c10.1-25.5,13-50.5,8.7-74.3
				c-1.9-10.5-5.2-20.8-9.9-30.8c11.9-2.6,23.1-8.6,32.3-17.8C507.5,98.2,507.5,56.3,481.6,30.4L481.6,30.4L481.6,30.4z"/>
		</g>
	</g>
</g>
</svg>
