<?xml version="1.0" encoding="utf-8"?>
<!-- Generator: Adobe Illustrator 24.0.2, SVG Export Plug-In . SVG Version: 6.00 Build 0)  -->
<svg version="1.1" id="Capa_1" xmlns="http://www.w3.org/2000/svg" xmlns:xlink="http://www.w3.org/1999/xlink" x="0px" y="0px"
	 viewBox="0 0 31.6 31.6" style="enable-background:new 0 0 31.6 31.6;" xml:space="preserve">
<style type="text/css">
	.st0{fill:#6C757D;}
</style>
<g>
	<g>
		<path class="st0" d="M31.4,4.9c0-1.2-1-2.2-2.2-2.2h-3.7V0.9c0-0.5-0.4-0.9-0.9-0.9h-1.9c-0.5,0-0.9,0.4-0.9,0.9v1.9H9.8V0.9
			C9.8,0.4,9.4,0,8.9,0H7.1C6.7,0,6.3,0.4,6.3,0.9v1.9H2.3c-1.2,0-2.2,1-2.2,2.2v7.7h1.1v16.7c0,1.2,1,2.2,2.2,2.2h24.4
			c1.2,0,2.2-1,2.2-2.2V12.6h1.3L31.4,4.9L31.4,4.9z M26.6,25.7c0,1.2-1,2.2-2.2,2.2H7.2C6,28,5,27,5,25.7V12.6h21.6L26.6,25.7
			L26.6,25.7z"/>
		<rect x="8" y="15.1" class="st0" width="3.5" height="3.7"/>
		<rect x="14.1" y="15.1" class="st0" width="3.5" height="3.7"/>
		<rect x="20.2" y="15.1" class="st0" width="3.5" height="3.7"/>
		<rect x="8" y="21.5" class="st0" width="3.5" height="3.7"/>
		<rect x="14.1" y="21.5" class="st0" width="3.5" height="3.7"/>
		<rect x="20.2" y="21.5" class="st0" width="3.5" height="3.7"/>
	</g>
</g>
</svg>
